<?xml version="1.0" encoding="iso-8859-1"?>
<!-- Generator: Adobe Illustrator 18.0.0, SVG Export Plug-In . SVG Version: 6.00 Build 0)  -->
<!DOCTYPE svg PUBLIC "-//W3C//DTD SVG 1.1//EN" "http://www.w3.org/Graphics/SVG/1.1/DTD/svg11.dtd">
<svg xmlns="http://www.w3.org/2000/svg" xmlns:xlink="http://www.w3.org/1999/xlink" version="1.1" id="Capa_1" x="0px" y="0px" viewBox="0 0 422.579 422.579" style="enable-background:new 0 0 422.579 422.579;" xml:space="preserve" width="35px" height="35px">
<g>
	<path d="M310.712,233.58l-22.438-6.687V113.851c18.861-10.906,30.416-30.781,30.416-52.807C318.69,27.384,291.31,0,257.655,0   c-33.66,0-61.044,27.384-61.044,61.044c0,22.018,11.555,41.893,30.417,52.807v65.899c-4.988-3.524-11.065-5.602-17.623-5.602   c-11.835,0-22.115,6.753-27.211,16.604c-5.491-5.199-12.894-8.398-21.034-8.398c-15.332,0-28.067,11.327-30.28,26.051   c-5.05-3.672-11.257-5.846-17.965-5.846c-16.886,0-30.623,13.737-30.623,30.623v87.94c0,35.95,12.469,71.127,35.111,99.052   c1.285,1.584,3.161,2.406,5.053,2.406c1.438,0,2.886-0.475,4.09-1.451c2.789-2.261,3.216-6.354,0.955-9.143   c-20.77-25.616-32.208-57.886-32.208-90.865v-87.94c0-9.717,7.906-17.623,17.623-17.623s17.623,7.905,17.623,17.623v29.186   c0,3.59,2.91,6.5,6.5,6.5s6.5-2.91,6.5-6.5v-49.391c0-9.717,7.906-17.623,17.623-17.623s17.623,7.905,17.623,17.623v39.293   c0,3.59,2.91,6.5,6.5,6.5s6.5-2.91,6.5-6.5V204.77c0-9.717,7.905-17.623,17.623-17.623s17.623,7.906,17.623,17.623v55.352   c0,3.59,2.91,6.5,6.5,6.5s6.5-2.91,6.5-6.5V100.697c0-9.717,7.905-17.623,17.623-17.623s17.623,7.906,17.623,17.623V311.81   c0,3.59,2.91,6.5,6.5,6.5s6.5-2.91,6.5-6.5v-71.352l18.725,5.581c11.946,3.561,20.289,14.753,20.289,27.218v55.912   c0,18.76-6.506,37.117-18.319,51.69c-11.813,14.573-28.427,24.737-46.78,28.62c-3.512,0.743-5.757,4.192-5.014,7.705   c0.647,3.059,3.347,5.156,6.353,5.156c0.445,0,0.898-0.046,1.352-0.142c21.26-4.498,40.505-16.271,54.189-33.152   c13.684-16.881,21.22-38.146,21.22-59.876v-55.912C340.288,255.085,328.126,238.771,310.712,233.58z M245.327,72.673   c-6.263-6.642-6.164-17.129,0.328-23.621c2.539-2.539,2.539-6.654,0-9.192c-2.538-2.538-6.654-2.538-9.192,0   c-11.078,11.078-11.638,28.751-1.692,40.516c-4.285,4.82-7.07,10.995-7.629,17.795c-11.008-8.999-17.53-22.457-17.53-37.126   c0-26.492,21.552-48.044,48.044-48.044c26.486,0,48.035,21.552,48.035,48.044c0,14.676-6.521,28.135-17.528,37.13   c-0.558-6.8-3.343-12.977-7.628-17.797c4.579-5.401,7.081-12.175,7.081-19.336c0-8.005-3.118-15.528-8.779-21.183   c-2.54-2.537-6.655-2.535-9.192,0.005c-2.537,2.54-2.535,6.655,0.005,9.192c3.202,3.199,4.966,7.456,4.966,11.986   c0,4.367-1.653,8.472-4.639,11.633c-3.774-1.666-7.941-2.599-12.325-2.599C253.268,70.074,249.1,71.006,245.327,72.673z" fill="#4d4d4d"/>
	<path d="M257.651,23.369c-3.59,0-6.5,2.91-6.5,6.5v24.756c0,3.59,2.91,6.5,6.5,6.5s6.5-2.91,6.5-6.5V29.869   C264.151,26.279,261.241,23.369,257.651,23.369z" fill="#4d4d4d"/>
</g>
<g>
</g>
<g>
</g>
<g>
</g>
<g>
</g>
<g>
</g>
<g>
</g>
<g>
</g>
<g>
</g>
<g>
</g>
<g>
</g>
<g>
</g>
<g>
</g>
<g>
</g>
<g>
</g>
<g>
</g>
</svg>
